<svg xmlns="http://www.w3.org/2000/svg" viewBox="0 0 405.99 608.93"><title>Artboard 2</title><g id="Layer_2" data-name="Layer 2"><path d="M123.23,0A157.42,157.42,0,0,0,97.75,12.41C84.11,20.59,64.18,35.06,57.08,46.25S38,80.92,37.15,98.12s1.78,24.71,8.33,27.71,14.33,7,25.8-.69c0,0,3.14,6.59.39,19s-6,29.39-13.74,40.93-10.44,21.7-10.44,27.75.27,29.67,15.66,48.35,8.83,11,8.83,11-42-22-56.88-55.75S-1.31,164.42.71,131.22c1.54-25.33,22.41-66,28.07-74.53S49.53,30.51,78.07,17.3,120.31-.41,123.23,0Z"/><path d="M100.66,17.88s37.41-7.76,71.58,1.77,59.29,16.28,92.07,50,25.81,27,27,29.06-6-25.81-14.42-38.13S249,21,226.42,11.28,176,2,160.62,2.44,115.8,7.74,100.66,17.88Z"/><path d="M284.66,55.48S303,76.59,303.95,110.26s-6.42,48.66-11,58.76-24.79,35.19-37,50.5a223.15,223.15,0,0,1-29.38,30.6c-7.35,6.43-21.42,17.44-30.91,26.32S170.82,303.68,158.88,323s-22,41.62-20.81,71.92S167.6,481,203.56,506c0,0-27.24-48.35-8.57-108,0,0,6.13,28.31,16.53,49.89,14.55,30.18,23.6,38.78,26.93,43.46,6.1,8.59,6.73,26.63,6.73,26.63s17.14-19.28,23.57-44.38c0,0-17.14-26.63-18.67-42.85s-8.57-70.08,7-111.4,19.89-42.54,23.87-49,31.83-47.13,36.11-102.52S296.91,64,284.66,55.48Z"/><path d="M268.94,494.75s-9.09,17.46-18.32,21.35c0,0,15.73,7.94,12.7,33.62C263.31,549.72,282.5,524.47,268.94,494.75Z"/><path d="M179.29,492.46s8.75,15.64,21.83,19.26c0,0-15.11,15.24-12.68,37.76C188.43,549.48,165.49,526,179.29,492.46Z"/><path d="M206.57,230.16s-4.35,13.22-5.3,23.2c0,0-6.27,2.45-21.39,21.39,0,0-1-13.49,7.22-24A186.78,186.78,0,0,1,206.57,230.16Z"/><path d="M148.95,320.27s13.35-29.3,24.94-42.11a6.75,6.75,0,0,0-.82-7.63c-3.13-3.82-8.31-11.72-10.08-16.63s-9.4,8.72-12.81,16.22S143.71,309.63,148.95,320.27Z"/><path d="M142.76,293.12s-11.56,22.69-13.54,49c-1.85,24.68-.47,24.85.64,40.7,1,13.8,3.08,16.86,3.08,16.86s-21.68-16.86-26.12-56.5c0,0,1.61-3.6-16.79,15.41A198.3,198.3,0,0,0,63.28,393S68.47,354.52,80,337.1s34.46-31,38.72-33.23S142.76,293.12,142.76,293.12Z"/><path d="M109.57,410.37s5.86,24.1,19.63,43.11c12.85,17.73,38.62,33,38.62,33S113,474.06,103,456.47C99.09,449.55,109.57,410.37,109.57,410.37Z"/><path d="M324.39,379.37s-5.86,24.1-19.63,43.11c-12.85,17.73-38.62,33-38.62,33s54.82-12.38,64.81-30C334.87,418.55,324.39,379.37,324.39,379.37Z"/><path d="M118,394.08S93.28,419.75,93,470.23c-.19,38.63,19.36,52.69,19.36,52.69S102,555.5,99.56,557.73s-28.47,18-35.73,18.38c0,0,20.33-21.54,21-34.95.41-7.93-17.13-22-17.13-22s-5.4,11.92-6.89,18.25-4.1,29.42,0,44.5,7.45,23.46,11.54,27c0,0-38.27-22.44-43.94-93.09C50,431.76,103.48,407.76,118,394.08Z"/><path d="M316.43,363.08s24.7,25.68,24.95,76.15c.19,38.63-19.36,52.69-19.36,52.69s10.43,32.58,12.85,34.82,28.47,18,35.73,18.38c0,0-20.33-21.54-21-34.95-.41-7.93,17.13-22,17.13-22s5.4,11.92,6.89,18.25,4.1,29.42,0,44.5-7.45,23.46-11.54,27c0,0,38.27-22.44,43.94-93.09C384.43,400.76,330.94,376.76,316.43,363.08Z"/><path d="M258.63,376.89s11.36-42.44,32.68-68.55c0,0,57.59,22.12,78.11,85.09,0,0-18.46-37.08-60.78-51.41C296.29,337.83,258.63,376.89,258.63,376.89Z"/><path d="M273.79,307.06s11.06-23.87,28.53-29.8c0,0,35.73,6.24,58.36,61.17,0,0-31.05-36.76-60-40.42C288.47,296.46,273.79,307.06,273.79,307.06Z"/><path d="M292.8,268.13s12.4-9.14,17.8-9.49,19.89,11.49,19.89,11.49-12-3-21-3.28A75.84,75.84,0,0,0,292.8,268.13Z"/></g></svg>